<svg width="32" height="32" viewBox="0 0 32 32" fill="none" xmlns="http://www.w3.org/2000/svg">
<path fill-rule="evenodd" clip-rule="evenodd" d="M5.33337 4.00001C4.60309 4.00001 4.00004 4.60306 4.00004 5.33334V18.6667C4.00004 19.397 4.60309 20 5.33337 20C6.06975 20 6.66671 20.597 6.66671 21.3333C6.66671 22.0697 6.06975 22.6667 5.33337 22.6667C3.13033 22.6667 1.33337 20.8697 1.33337 18.6667V5.33334C1.33337 3.1303 3.13033 1.33334 5.33337 1.33334H18.6667C20.8698 1.33334 22.6667 3.1303 22.6667 5.33334C22.6667 6.06972 22.0698 6.66668 21.3334 6.66668C20.597 6.66668 20 6.06972 20 5.33334C20 4.60306 19.397 4.00001 18.6667 4.00001H5.33337ZM13.3334 12C12.597 12 12 12.597 12 13.3333V26.6667C12 27.4031 12.597 28 13.3334 28H26.6667C27.4031 28 28 27.4031 28 26.6667V13.3333C28 12.597 27.4031 12 26.6667 12H13.3334ZM9.33337 13.3333C9.33337 11.1242 11.1242 9.33334 13.3334 9.33334H26.6667C28.8758 9.33334 30.6667 11.1242 30.6667 13.3333V26.6667C30.6667 28.8758 28.8758 30.6667 26.6667 30.6667H13.3334C11.1242 30.6667 9.33337 28.8758 9.33337 26.6667V13.3333Z" fill="#DAE4F2"/>
</svg>
