<svg width="32" height="32" viewBox="0 0 32 32" fill="none" xmlns="http://www.w3.org/2000/svg">
<path fill-rule="evenodd" clip-rule="evenodd" d="M17.0339 3.66757C18.5428 2.21031 20.5636 1.40395 22.6611 1.42218C24.7587 1.4404 26.7652 2.28176 28.2485 3.76502C29.7318 5.24829 30.5731 7.25479 30.5913 9.35236C30.6096 11.4499 29.8032 13.4708 28.3459 14.9796C28.3406 14.9851 28.3352 14.9906 28.3297 14.9961L24.3299 18.9959C24.3298 18.996 24.3298 18.996 24.3297 18.9961C23.5187 19.8073 22.5428 20.4347 21.468 20.8356C20.3932 21.2365 19.2447 21.4016 18.1005 21.3197C16.9563 21.2377 15.8431 20.9106 14.8364 20.3606C13.8296 19.8106 12.953 19.0505 12.2659 18.1319C11.8248 17.5423 11.9453 16.7067 12.5349 16.2656C13.1246 15.8245 13.9602 15.945 14.4012 16.5347C14.8593 17.1471 15.4438 17.6538 16.1149 18.0205C16.786 18.3871 17.5282 18.6052 18.291 18.6598C19.0538 18.7144 19.8195 18.6044 20.536 18.3371C21.2526 18.0698 21.9032 17.6515 22.4439 17.1107L22.4441 17.1105L26.4355 13.1191C27.4022 12.1141 27.9369 10.7702 27.9248 9.37553C27.9126 7.97715 27.3517 6.63948 26.3629 5.65064C25.374 4.6618 24.0364 4.1009 22.638 4.08874C21.2426 4.07662 19.8982 4.61183 18.8931 5.57936L16.6069 7.85217C16.0847 8.37135 15.2405 8.36889 14.7213 7.84668C14.2022 7.32446 14.2046 6.48025 14.7268 5.96107L17.0202 3.68107L17.0339 3.66757ZM10.5324 11.1643C11.6072 10.7634 12.7557 10.5983 13.8999 10.6803C15.0442 10.7622 16.1574 11.0893 17.1641 11.6393C18.1708 12.1893 19.0475 12.9494 19.7346 13.868C20.1757 14.4577 20.0552 15.2932 19.4655 15.7343C18.8759 16.1754 18.0403 16.0549 17.5992 15.4653C17.1411 14.8529 16.5567 14.3461 15.8855 13.9795C15.2144 13.6128 14.4723 13.3947 13.7094 13.3401C12.9466 13.2855 12.181 13.3955 11.4644 13.6628C10.7479 13.9301 10.0972 14.3484 9.55654 14.8893L9.55637 14.8894L5.56501 18.8808C4.5983 19.8858 4.06356 21.2296 4.07568 22.6244C4.08783 24.0228 4.64873 25.3604 5.63758 26.3493C6.62642 27.3381 7.96409 27.899 9.36247 27.9112C10.7572 27.9233 12.101 27.3885 13.1061 26.4218L15.3774 24.1505C15.8981 23.6298 16.7423 23.6298 17.263 24.1505C17.7837 24.6712 17.7837 25.5154 17.263 26.0361L14.983 28.3161C14.9796 28.3195 14.9762 28.3229 14.9727 28.3263C14.9706 28.3283 14.9686 28.3303 14.9665 28.3323C13.4577 29.7896 11.4369 30.596 9.3393 30.5777C7.24172 30.5595 5.23522 29.7182 3.75196 28.2349C2.26869 26.7516 1.42734 24.7451 1.40912 22.6476C1.39089 20.55 2.19724 18.5292 3.65451 17.0203C3.65987 17.0148 3.66529 17.0093 3.67075 17.0038L7.67058 13.004C7.67064 13.0039 7.67069 13.0039 7.67075 13.0038C8.48173 12.1926 9.45769 11.5652 10.5324 11.1643Z" fill="#DAE4F2"/>
</svg>
