<svg width="32" height="32" viewBox="0 0 32 32" fill="none" xmlns="http://www.w3.org/2000/svg">
<path fill-rule="evenodd" clip-rule="evenodd" d="M5.33293 6.66667C4.59655 6.66667 3.9996 7.26362 3.9996 8V8.60084L15.3371 15.8053C15.5359 15.9291 15.7654 15.9947 15.9996 15.9947C16.2338 15.9947 16.4633 15.9291 16.6621 15.8053C16.663 15.8047 16.664 15.8041 16.665 15.8034L27.9996 8.60084V8C27.9996 7.26362 27.4026 6.66667 26.6663 6.66667H5.33293ZM30.6663 9.31089V8C30.6663 5.79086 28.8754 4 26.6663 4H5.33293C3.12379 4 1.33293 5.79086 1.33293 8V9.31083C1.33271 9.325 1.33271 9.33917 1.33293 9.35332V24C1.33293 26.2091 3.12379 28 5.33293 28H26.6663C28.8754 28 30.6663 26.2091 30.6663 24V9.35326C30.6665 9.33915 30.6665 9.32502 30.6663 9.31089ZM27.9996 11.7604L18.0809 18.0632C17.457 18.4541 16.7357 18.6613 15.9996 18.6613C15.2635 18.6613 14.5422 18.4541 13.9184 18.0632L13.9111 18.0587L3.9996 11.7604V24C3.9996 24.7364 4.59655 25.3333 5.33293 25.3333H26.6663C27.4026 25.3333 27.9996 24.7364 27.9996 24V11.7604Z" fill="#DAE4F2"/>
</svg>
