<svg width="32" height="32" viewBox="0 0 32 32" fill="none" xmlns="http://www.w3.org/2000/svg">
<path fill-rule="evenodd" clip-rule="evenodd" d="M7.47619 5.59054C7.99689 6.11124 7.99689 6.95546 7.47619 7.47615C2.79689 12.1555 2.79689 19.8446 7.47619 24.5239C7.99689 25.0446 7.99689 25.8888 7.47619 26.4095C6.95549 26.9302 6.11127 26.9302 5.59057 26.4095C-0.130126 20.6888 -0.130126 11.3112 5.59057 5.59054C6.11127 5.06984 6.95549 5.06984 7.47619 5.59054ZM24.5239 5.59054C25.0446 5.06984 25.8888 5.06984 26.4095 5.59054C32.1302 11.3112 32.1302 20.5555 26.4095 26.2762C25.8888 26.7969 25.0446 26.7969 24.5239 26.2762C24.0032 25.7555 24.0032 24.9112 24.5239 24.3905C29.2032 19.7112 29.2032 12.1555 24.5239 7.47615C24.0032 6.95546 24.0032 6.11124 24.5239 5.59054ZM11.3226 9.30403C11.8542 9.81353 11.8722 10.6576 11.3627 11.1892C8.77948 13.8848 8.80769 18.122 11.3429 20.6572C11.8636 21.1779 11.8636 22.0221 11.3429 22.5428C10.8222 23.0635 9.97794 23.0635 9.45724 22.5428C5.85908 18.9447 5.88728 13.0486 9.4374 9.34414C9.9469 8.81248 10.7909 8.79452 11.3226 9.30403ZM20.6572 9.4572C21.1779 8.9365 22.0222 8.9365 22.5429 9.4572C26.141 13.0554 26.1128 18.9514 22.5627 22.6559C22.0532 23.1875 21.2092 23.2055 20.6775 22.696C20.1459 22.1865 20.1279 21.3425 20.6374 20.8108C23.2206 18.1153 23.1924 13.878 20.6572 11.3428C20.1365 10.8221 20.1365 9.9779 20.6572 9.4572ZM16 14.6667C15.2637 14.6667 14.6667 15.2636 14.6667 16C14.6667 16.7364 15.2637 17.3333 16 17.3333C16.7364 17.3333 17.3334 16.7364 17.3334 16C17.3334 15.2636 16.7364 14.6667 16 14.6667ZM12 16C12 13.7909 13.7909 12 16 12C18.2092 12 20 13.7909 20 16C20 18.2092 18.2092 20 16 20C13.7909 20 12 18.2092 12 16Z" fill="#DAE4F2"/>
</svg>
